<?xml version="1.0" encoding="utf-8"?>
<!-- Generator: Adobe Illustrator 25.4.1, SVG Export Plug-In . SVG Version: 6.00 Build 0)  -->
<svg version="1.1" id="Capa_1" xmlns="http://www.w3.org/2000/svg" xmlns:xlink="http://www.w3.org/1999/xlink" x="0px" y="0px"
	 viewBox="0 0 229.92 45.77" style="enable-background:new 0 0 229.92 45.77;" xml:space="preserve">
<style type="text/css">
	.st0{clip-path:url(#SVGID_00000130620848965301308810000009168466556552050607_);}
</style>
<g>
	<defs>
		<rect id="SVGID_1_" y="11.04" width="215.14" height="25.99"/>
	</defs>
	<clipPath id="SVGID_00000017487082268563955020000017173835497053071501_">
		<use xlink:href="#SVGID_1_"  style="overflow:visible;"/>
	</clipPath>
	<path style="clip-path:url(#SVGID_00000017487082268563955020000017173835497053071501_);" d="M189.15,11.04h5.98v25.51h-5.98
		V11.04z M181.65,19.72c1.27-1.49,3.21-2.43,5.14-2.43c0.58,0,1.09,0.15,1.62,0.33v5.63c-0.78-0.18-1.5-0.32-2.31-0.32
		c-3.09,0-4.21,2.13-4.21,5.1v8.52h-5.98V17.77h5.74V19.72z M148.19,26.15l3.59-15.11h6.44l-6.86,25.51h-6.2l-3.72-14.94
		l-3.66,14.94h-6.31l-6.75-25.51h6.55l3.47,14.91l3.8-14.91h5.9L148.19,26.15z M31.48,19.3c1.35-1.35,3.17-2.01,4.93-2.01
		c5.6,0,7.02,3.31,7.02,7.84v11.42h-5.98V26.02c0-2.8-0.78-3.77-2.54-3.77c-2.18,0-3.19,1.05-3.19,4.49v9.82h-5.98V17.77h5.74V19.3z
		 M108.19,35.03c-1.35,1.36-3.17,2.01-4.93,2.01c-5.6,0-7.02-3.31-7.02-7.84V17.77h5.98v10.54c0,2.8,0.78,3.77,2.54,3.77
		c2.18,0,3.19-1.05,3.19-4.49v-9.82h5.98v18.79h-5.74V35.03z M70.2,19.72c1.27-1.49,3.21-2.42,5.14-2.42c0.58,0,1.09,0.15,1.62,0.33
		v5.63c-0.78-0.18-1.5-0.32-2.31-0.32c-3.09,0-4.21,2.13-4.21,5.1v8.52h-5.98V17.77h5.74V19.72z M164.86,17.29
		c5.89,0,9.72,3.95,9.72,9.89c0,5.9-3.83,9.86-9.72,9.86c-5.86,0-9.68-3.95-9.68-9.86C155.18,21.25,159.01,17.29,164.86,17.29
		 M164.86,32.25c2.79,0,3.74-2.31,3.74-5.07c0-2.79-0.95-5.1-3.74-5.1c-2.75,0-3.7,2.31-3.7,5.1
		C161.16,29.94,162.11,32.25,164.86,32.25 M82.69,28.91c0.27,2.37,1.53,3.34,3.72,3.34c1.56,0,2.97-0.78,3.4-2.29h5.48
		c-1.51,4.6-4.04,7.07-9.05,7.07c-5.9,0-9.58-4.11-9.58-9.85c0-5.58,3.88-9.89,9.58-9.89c6.89,0,9.46,5.87,9.1,11.61H82.69z
		 M89.27,24.7c-0.47-1.82-1.37-2.62-3.16-2.62c-2.24,0-3.13,1.44-3.39,2.62H89.27z M57.54,35.28c-1.27,1.23-3.01,1.76-4.86,1.76
		c-5.78,0-8.49-4.99-8.49-10.03c0-4.91,2.75-9.72,8.39-9.72c1.71,0,3.42,0.56,4.7,1.68l0.03-7.93h5.98v25.51h-5.74V35.28z
		 M53.87,22.08c-2.66,0-3.7,2.23-3.7,5.07c0,2.7,1.21,5.1,3.7,5.1c2.67,0,3.6-2.26,3.6-5.14C57.47,24.29,56.49,22.08,53.87,22.08
		 M9.68,11.05h6.28l9.54,25.51h-6.79l-1.84-5.43H8.56l-1.91,5.43H0L9.68,11.05z M12.76,19.24L10.36,26h4.72L12.76,19.24z
		 M205.73,22.08c-2.66,0-3.7,2.23-3.7,5.07c0,2.7,1.21,5.1,3.7,5.1c2.67,0,3.6-2.26,3.6-5.14
		C209.33,24.29,208.34,22.08,205.73,22.08 M209.39,35.28c-1.27,1.23-3.01,1.76-4.86,1.76c-5.78,0-8.49-4.99-8.49-10.03
		c0-4.91,2.76-9.72,8.39-9.72c1.71,0,3.42,0.56,4.7,1.68l0.03-7.93h5.98v25.51h-5.74V35.28z"/>
</g>
</svg>
